<svg class="svg-icon" style="width: 1em; height: 1em; vertical-align: middle; fill: currentColor; overflow: hidden;" viewBox="0 0 24 24" version="1.1" xmlns="http://www.w3.org/2000/svg">
  <defs>
    <linearGradient id="homeGradient" x1="0%" y1="0%" x2="100%" y2="100%">
      <stop offset="0%" style="stop-color:#48bb78;stop-opacity:1" />
      <stop offset="50%" style="stop-color:#667eea;stop-opacity:1" />
      <stop offset="100%" style="stop-color:#764ba2;stop-opacity:1" />
    </linearGradient>
    <filter id="homeGlow">
      <feGaussianBlur stdDeviation="1.5" result="coloredBlur"/>
      <feMerge> 
        <feMergeNode in="coloredBlur"/>
        <feMergeNode in="SourceGraphic"/>
      </feMerge>
    </filter>
  </defs>
  
  <!-- House base -->
  <path d="M 4 12 L 12 4 L 20 12 L 20 20 A 1 1 0 0 1 19 21 L 15 21 L 15 16 A 1 1 0 0 0 14 15 L 10 15 A 1 1 0 0 0 9 16 L 9 21 L 5 21 A 1 1 0 0 1 4 20 Z" fill="url(#homeGradient)" opacity="0.3" stroke="url(#homeGradient)" stroke-width="1"/>
  
  <!-- House roof -->
  <path d="M 3 13 L 12 4 L 21 13" stroke="url(#homeGradient)" stroke-width="2.5" fill="none" opacity="0.8" stroke-linecap="round" filter="url(#homeGlow)"/>
  
  <!-- House body -->
  <rect x="5" y="12" width="14" height="8" rx="1" fill="url(#homeGradient)" opacity="0.4"/>
  
  <!-- Door -->
  <rect x="10" y="15" width="4" height="6" rx="2" fill="url(#homeGradient)" opacity="0.8" filter="url(#homeGlow)"/>
  <circle cx="11.5" cy="18" r="0.5" fill="#ffffff" opacity="0.9"/>
  
  <!-- Windows -->
  <rect x="6.5" y="14" width="2" height="2" rx="0.5" fill="#ffffff" opacity="0.6"/>
  <rect x="15.5" y="14" width="2" height="2" rx="0.5" fill="#ffffff" opacity="0.6"/>
  
  <!-- Window crosses -->
  <line x1="7.5" y1="14" x2="7.5" y2="16" stroke="url(#homeGradient)" stroke-width="0.5" opacity="0.4"/>
  <line x1="6.5" y1="15" x2="8.5" y2="15" stroke="url(#homeGradient)" stroke-width="0.5" opacity="0.4"/>
  <line x1="16.5" y1="14" x2="16.5" y2="16" stroke="url(#homeGradient)" stroke-width="0.5" opacity="0.4"/>
  <line x1="15.5" y1="15" x2="17.5" y2="15" stroke="url(#homeGradient)" stroke-width="0.5" opacity="0.4"/>
  
  <!-- Chimney -->
  <rect x="16" y="7" width="2" height="4" fill="url(#homeGradient)" opacity="0.6"/>
  
  <!-- Welcome mat -->
  <ellipse cx="12" cy="21.5" rx="3" ry="0.5" fill="url(#homeGradient)" opacity="0.3"/>
  
  <!-- Decorative elements -->
  <circle cx="12" cy="8" r="1" fill="#ffffff" opacity="0.2"/>
</svg>